<svg height="409.6pt" viewBox="0 0 409.6 409.6" width="409.6pt" xmlns="http://www.w3.org/2000/svg"><path d="m204.800781 409.601562c-112.925781 0-204.800781-91.875-204.800781-204.800781s91.875-204.800781 204.800781-204.800781 204.800781 91.875 204.800781 204.800781-91.875 204.800781-204.800781 204.800781zm0-395.949218c-105.402343 0-191.148437 85.746094-191.148437 191.148437 0 105.398438 85.746094 191.144531 191.148437 191.144531 105.398438 0 191.144531-85.746093 191.144531-191.144531 0-105.402343-85.746093-191.148437-191.144531-191.148437zm0 0"/><path d="m204.800781 389.121094c-101.632812 0-184.320312-82.6875-184.320312-184.320313 0-101.632812 82.6875-184.320312 184.320312-184.320312 101.632813 0 184.320313 82.6875 184.320313 184.320312 0 101.632813-82.6875 184.320313-184.320313 184.320313zm0-354.988282c-94.109375 0-170.667969 76.558594-170.667969 170.667969 0 94.105469 76.558594 170.664063 170.667969 170.664063 94.105469 0 170.664063-76.558594 170.664063-170.664063 0-94.109375-76.558594-170.667969-170.664063-170.667969zm0 0"/><path d="m279.894531 300.375h-143.359375c-2.113281 0-4.109375-.980469-5.402344-2.648438-1.285156-1.667968-1.738281-3.839843-1.210937-5.886718l54.613281-211.625c.945313-3.664063 4.679688-5.835938 8.316406-4.90625 3.648438.945312 5.847657 4.664062 4.910157 8.316406l-52.414063 203.09375h134.546875c3.773438 0 6.824219 3.054688 6.824219 6.828125s-3.050781 6.828125-6.824219 6.828125zm0 0"/><path d="m129.707031 225.28125c-2.941406 0-5.652343-1.90625-6.539062-4.867188-1.082031-3.609374.964843-7.414062 4.578125-8.5l68.269531-20.480468c3.613281-1.074219 7.417969.964844 8.496094 4.582031 1.082031 3.605469-.964844 7.414063-4.578125 8.496094l-68.269532 20.480469c-.648437.195312-1.3125.289062-1.957031.289062zm0 0"/></svg>